<?xml version="1.0" standalone="no"?>
<!DOCTYPE svg PUBLIC "-//W3C//DTD SVG 20010904//EN"
 "http://www.w3.org/TR/2001/REC-SVG-20010904/DTD/svg10.dtd">
<svg version="1.0" xmlns="http://www.w3.org/2000/svg"
 width="512.000000pt" height="512.000000pt" viewBox="0 0 512.000000 512.000000"
 preserveAspectRatio="xMidYMid meet">
<metadata>
Created by potrace 1.14, written by Peter Selinger 2001-2017
</metadata>
<g transform="translate(0.000000,512.000000) scale(0.100000,-0.100000)"
fill="#000000" stroke="none">
<path d="M991 5106 c-34 -11 -127 -94 -116 -104 2 -3 -1 -12 -8 -20 -17 -21
-19 -1523 -1 -1632 11 -72 40 -184 52 -205 4 -5 7 -16 9 -24 7 -46 126 -262
184 -335 63 -78 178 -176 207 -176 5 0 15 -6 21 -14 7 -8 27 -17 46 -20 27 -5
35 -12 36 -29 0 -12 2 -526 3 -1142 3 -970 5 -1148 16 -1162 2 -2 3 -6 5 -10
8 -31 37 -83 45 -83 6 0 10 -5 10 -11 0 -18 72 -77 129 -105 48 -24 69 -28
146 -28 77 -1 98 3 145 25 117 56 196 164 208 288 4 36 7 558 6 1159 0 681 3
1092 9 1092 18 0 127 53 127 61 0 5 6 9 14 9 14 0 146 122 146 135 0 4 8 15
19 24 25 22 97 140 139 230 36 77 82 212 82 241 0 9 3 20 7 23 4 4 8 26 10 49
3 23 9 50 14 60 7 12 6 18 -1 18 -6 0 -8 5 -4 12 4 6 6 32 5 57 -2 25 -4 61
-5 79 -1 17 1 32 4 32 7 0 4 1301 -4 1342 -26 138 -168 215 -291 159 -41 -18
-106 -71 -89 -71 5 0 5 -4 -1 -8 -39 -28 -39 -30 -40 -783 l0 -726 -28 -36
c-32 -42 -49 -53 -92 -59 -67 -10 -133 30 -153 92 -8 24 -11 249 -11 732 0
426 -4 704 -9 715 -10 18 -12 25 -12 42 0 22 -79 91 -119 106 -98 34 -182 5
-259 -89 -7 -9 -10 -16 -6 -16 3 0 0 -7 -7 -16 -11 -14 -14 -147 -15 -738 0
-498 -4 -729 -12 -748 -18 -43 -75 -80 -124 -80 -72 -2 -124 37 -141 102 -4
14 -7 338 -7 720 0 515 -4 706 -13 735 -6 22 -30 58 -52 80 -60 60 -140 78
-224 51z"/>
<path d="M3733 5090 c-64 -32 -166 -124 -198 -177 -11 -18 -22 -33 -26 -33
-18 0 -156 -262 -198 -375 -13 -33 -29 -72 -37 -86 -7 -14 -11 -29 -8 -32 3
-3 -2 -19 -10 -36 -9 -16 -16 -39 -16 -51 0 -11 -4 -20 -8 -20 -4 0 -8 -8 -9
-17 -1 -25 -13 -75 -19 -85 -6 -10 -16 -60 -18 -93 0 -11 -4 -22 -8 -25 -4 -3
-8 -25 -9 -48 -2 -23 -5 -42 -8 -42 -4 0 -7 -12 -7 -27 -1 -16 -5 -55 -9 -88
-4 -33 -9 -76 -11 -95 -8 -67 -3 -470 6 -470 3 0 6 -21 7 -48 2 -79 8 -126 17
-141 7 -10 6 -12 -4 -6 -9 6 -11 4 -5 -5 10 -16 17 -56 16 -92 -1 -16 3 -28 8
-28 4 0 8 -8 7 -17 -1 -28 24 -140 50 -222 13 -41 21 -77 19 -82 -3 -4 -1 -10
5 -14 6 -4 8 -11 5 -16 -4 -5 -2 -9 3 -9 8 0 14 -14 25 -60 0 -3 23 -47 50
-99 69 -134 98 -173 192 -258 20 -18 20 -30 19 -948 0 -512 2 -934 5 -940 2
-5 6 -23 8 -39 2 -17 7 -32 11 -35 4 -4 8 -13 10 -21 2 -8 8 -17 13 -18 5 -2
7 -7 4 -12 -3 -4 2 -13 10 -20 8 -7 15 -18 15 -24 0 -6 13 -20 29 -31 16 -10
27 -23 25 -27 -3 -4 2 -8 10 -8 8 0 21 -6 28 -13 42 -42 193 -67 275 -46 102
26 205 117 244 215 l23 59 1 2249 c1 1319 -2 2270 -8 2300 -12 71 -42 123
-101 182 -73 72 -136 96 -262 100 -96 4 -104 2 -161 -26z"/>
</g>
</svg>
